PathFileType	3	(X/Y/Z)	E:\ViconData\BIOM9541 2025\Week 7\Wed1100\Hanif deep squat 7-5 Squat 01.trc
DataRate	CameraRate	NumFrames	NumMarkers	Units	OrigDataRate	OrigDataStartFrame	OrigNumFrames
200.0	200.0	8	19	mm	200.0	1611	1840	
Frame#	Time	C7			CLAV			RBAK			LASI			RASI			LPSI			RPSI			LTHI			LKNE			LTIB			LANK			LHEE			LTOE			RTHI			RKNE			RTIB			RANK			RHEE			RTOE			
		X1	Y1	Z1	X2	Y2	Z2	X3	Y3	Z3	X4	Y4	Z4	X5	Y5	Z5	X6	Y6	Z6	X7	Y7	Z7	X8	Y8	Z8	X9	Y9	Z9	X10	Y10	Z10	X11	Y11	Z11	X12	Y12	Z12	X13	Y13	Z13	X14	Y14	Z14	X15	Y15	Z15	X16	Y16	Z16	X17	Y17	Z17	X18	Y18	Z18	X19	Y19	Z19	
1611	8.05	314.53424	881.21033	-1229.5103	172.28806	791.53583	-1213.4889	329.38113	804.25848	-1381.5276	294.43192	461.664	-1095.7201	280.06485	472.49548	-1361.0629	456.76379	522.49011	-1188.6385	455.52988	517.73938	-1260.6564	200.06232	417.34818	-938.16937	94.641281	348.07312	-882.02448	202.75592	179.12566	-932.3476	295.67307	63.764698	-1006.1226	312.84995	55.276855	-1066.4991	159.52855	37.797234	-967.35773	318.09241	452.32309	-1433.265	75.740128	326.00522	-1537.0402	114.76572	253.82906	-1527.7357	287.74304	70.529594	-1432.5819	315.36472	54.737068	-1362.6196	161.58452	39.328812	-1461.7218
1612	8.055	314.54691	885.89087	-1229.4121	172.36542	796.23083	-1213.4097	329.43872	809.03717	-1381.5481	294.504	465.27469	-1095.5477	280.12875	476.74576	-1361.11	456.63077	527.15125	-1188.4291	455.46027	522.40656	-1260.8069	199.60962	418.72589	-938.03534	94.567986	348.1611	-882.41095	202.82556	179.23705	-932.42706	295.66986	63.814102	-1006.015	312.9751	55.360458	-1066.4283	159.54582	37.791672	-967.27625	317.43848	455.56961	-1433.6473	75.961281	326.4548	-1536.75	114.96609	254.1371	-1527.5564	287.77896	70.580353	-1432.6229	315.93945	54.901833	-1363.2396	161.58127	39.38332	-1461.7743
1613	8.06	314.63806	890.70813	-1229.3599	172.45424	800.96637	-1213.4104	329.48013	813.92322	-1381.5229	294.5885	469.01389	-1095.457	280.07053	481.2149	-1361.2104	456.56995	531.94116	-1188.4003	455.32089	527.10596	-1260.8557	199.10748	420.06461	-937.94299	94.532951	348.31735	-882.78601	202.89809	179.31682	-932.5332	295.68942	63.840256	-1005.9144	313.09973	55.44981	-1066.3293	159.56715	37.8479	-967.24225	316.73648	458.79831	-1433.9951	76.245781	326.91534	-1536.4812	115.28645	254.5132	-1527.4133	287.83569	70.643555	-1432.6472	315.9339	54.899399	-1363.22	161.61632	39.472393	-1461.8398
1614	8.065	314.6972	895.44989	-1229.3197	172.5442	805.85657	-1213.481	329.49707	818.71143	-1381.4941	294.69061	472.91684	-1095.5077	280.19397	485.51089	-1361.2412	456.50009	536.74384	-1188.675	455.20834	531.8432	-1260.9808	198.69836	421.49054	-937.92627	94.530533	348.52618	-883.13953	202.9696	179.47668	-932.57056	295.69492	63.819485	-1005.845	313.31146	55.533035	-1066.3102	159.53091	37.815674	-967.12415	316.12836	462.04346	-1434.4362	76.542946	327.29416	-1536.222	115.61568	254.78526	-1527.3005	287.90741	70.662979	-1432.6884	315.43704	54.638294	-1362.8057	161.63818	39.484921	-1461.9049
1615	8.07	314.8309	900.26697	-1229.347	172.61385	810.72937	-1213.4423	329.5293	823.65649	-1381.4662	294.79874	477.08914	-1095.6146	280.17474	489.94974	-1361.3705	456.40662	541.38098	-1188.7594	455.2084	536.89276	-1261.1224	198.22751	422.92981	-937.76471	94.564781	348.78021	-883.49329	203.08026	179.651	-932.66565	295.76871	63.844032	-1005.835	313.36755	55.410374	-1066.2109	159.52769	37.756557	-967.06085	315.50375	465.16653	-1434.8257	76.893867	327.65158	-1535.9924	115.98057	255.0273	-1527.2622	287.98157	70.587418	-1432.7385	315.46255	54.592598	-1362.8636	161.68686	39.455616	-1461.9707
1616	8.075	314.94006	905.15186	-1229.3638	172.72588	815.74054	-1213.3704	329.88107	828.59448	-1381.6073	294.82925	481.35693	-1095.646	280.13348	494.37787	-1361.3938	456.34723	546.20465	-1189.2046	455.13049	541.69818	-1261.2964	197.88171	424.49515	-937.60339	94.664528	349.01773	-883.78357	203.24248	179.82487	-932.79926	295.85349	63.866318	-1005.8511	313.39893	55.345905	-1066.1375	159.57167	37.761616	-967.18579	314.86322	468.31888	-1435.2512	77.326996	327.97995	-1535.7521	116.42123	255.32816	-1527.2162	288.03888	70.545769	-1432.8022	316.05835	54.750111	-1363.5819	161.7276	39.404678	-1462.0175
1617	8.08	315.03412	910.11267	-1229.337	172.88159	820.75226	-1213.4009	329.58951	833.59021	-1381.548	294.85788	485.75958	-1095.7175	280.20602	498.86987	-1361.5082	456.18655	551.04755	-1189.1204	454.99103	546.53485	-1261.3756	197.47072	425.8898	-937.52399	94.745476	349.30243	-884.03101	203.36661	179.98596	-932.85974	295.88654	63.896015	-1005.8011	313.44714	55.380928	-1066.1106	159.55136	37.807865	-967.15936	314.23071	471.55643	-1435.6948	77.751953	328.45383	-1535.5952	116.8069	255.76945	-1527.1713	288.10269	70.562561	-1432.8658	315.53348	54.500172	-1363.0198	161.73013	39.480942	-1462.0902
1618	8.085	315.15616	915.10571	-1229.3436	172.97516	825.78021	-1213.4049	329.617	838.7049	-1381.575	294.87073	490.21249	-1095.8046	280.15118	503.44806	-1361.5673	456.00043	555.9812	-1188.953	454.86496	551.33545	-1261.4354	197.12878	427.33395	-937.36731	94.895187	349.50116	-884.34119	203.53053	180.0986	-932.98987	295.89648	63.958912	-1005.7149	313.56573	55.572433	-1066.0985	159.52686	37.834877	-967.05151	313.63989	474.79425	-1436.1427	78.175148	329.0209	-1535.4526	117.2582	256.24289	-1527.1516	288.14349	70.630058	-1432.923	315.51648	54.554443	-1362.9453	161.76567	39.581722	-1462.1412
